HIERARCHY
ROOT Hips
{
	OFFSET 0.00000 0.00000 0.00000
	CHANNELS 6 Xposition Yposition Zposition Zrotation Yrotation Xrotation 
	JOINT LHipJoint
	{
		OFFSET 0 0 0
		CHANNELS 3 Zrotation Yrotation Xrotation
		JOINT LeftHip
		{
			OFFSET 1.81424 -1.42316 1.18090
			CHANNELS 3 Zrotation Yrotation Xrotation
			JOINT LeftKnee
			{
				OFFSET 2.15837 -5.93008 0.00000
				CHANNELS 3 Zrotation Yrotation Xrotation
				JOINT LeftAnkle
				{
					OFFSET 2.51759 -6.91701 0.00000
					CHANNELS 3 Zrotation Yrotation Xrotation
					JOINT LeftToe
					{
						OFFSET 0.18318 -0.50327 1.95113
						CHANNELS 3 Zrotation Yrotation Xrotation
						End Site
						{
							OFFSET 0.00000 -0.00000 1.01524
						}
					}
				}
			}
		}
	}
	JOINT RHipJoint
	{
		OFFSET 0 0 0
		CHANNELS 3 Zrotation Yrotation Xrotation
		JOINT RightHip
		{
			OFFSET -1.43917 -1.42316 1.18090
			CHANNELS 3 Zrotation Yrotation Xrotation
			JOINT RightKnee
			{
				OFFSET -2.25237 -6.18833 0.00000
				CHANNELS 3 Zrotation Yrotation Xrotation
				JOINT RightAnkle
				{
					OFFSET -2.46496 -6.77243 0.00000
					CHANNELS 3 Zrotation Yrotation Xrotation
					JOINT RightToe
					{
						OFFSET -0.26285 -0.72219 1.76148
						CHANNELS 3 Zrotation Yrotation Xrotation
						End Site
						{
							OFFSET -0.00000 -0.00000 0.95109
						}
					}
				}
			}
		}
	}
	JOINT lowerback
	{
		OFFSET 0 0 0
		CHANNELS 3 Zrotation Yrotation Xrotation
		JOINT Chest
		{
			OFFSET -0.08725 1.93754 -0.28890
			CHANNELS 3 Zrotation Yrotation Xrotation
			JOINT Chest2
			{
				OFFSET 0.01195 1.94849 0.05967
				CHANNELS 3 Zrotation Yrotation Xrotation
				JOINT lowerneck
				{
					OFFSET 0 0 0
					CHANNELS 3 Zrotation Yrotation Xrotation
					JOINT Neck
					{
						OFFSET 0.02762 1.60124 0.34160
						CHANNELS 3 Zrotation Yrotation Xrotation
						JOINT Head
						{
							OFFSET -0.04785 1.66713 -0.24070
							CHANNELS 3 Zrotation Yrotation Xrotation
							End Site
							{
								OFFSET -0.02188 1.68591 -0.11959
							}
						}
					}
				}
				JOINT LeftCollar
				{
					OFFSET 0 0 0
					CHANNELS 3 Zrotation Yrotation Xrotation
					JOINT LeftShoulder
					{
						OFFSET 2.59610 1.78696 -0.28854
CHANNELS 3 Zrotation Xrotation Yrotation
						JOINT LeftElbow
						{
OFFSET 0 -5.178530 0.000000
CHANNELS 3 Zrotation Xrotation Yrotation
							JOINT LeftWrist
							{
OFFSET 0 -3.403990 -0.000000
CHANNELS 3 Zrotation Xrotation Yrotation
								JOINT lhand
								{
									OFFSET 0 0 0
CHANNELS 3 Zrotation Xrotation Yrotation
									JOINT LFingers
									{
OFFSET 0 -0.708960 -0.000000
CHANNELS 3 Zrotation Xrotation Yrotation
										End Site
										{
OFFSET 0 -0.571590 -0.000000
										}
									}
								}
								JOINT LThumb
								{
OFFSET 0 0.000000 0.000000
CHANNELS 3 Zrotation Xrotation Yrotation
									End Site
									{
OFFSET 0 -0.580310 0.580310
									}
								}
							}
						}
					}
				}
				JOINT RightCollar
				{
					OFFSET 0 0 0
					CHANNELS 3 Zrotation Yrotation Xrotation
					JOINT RightShoulder
					{
						OFFSET -2.87749 1.55486 -0.73085
CHANNELS 3 Zrotation Xrotation Yrotation
						JOINT RightElbow
						{
OFFSET 0 -5.423510 -0.000000
CHANNELS 3 Zrotation Xrotation Yrotation
							JOINT RightWrist
							{
OFFSET 0 -3.420660 -0.000000
CHANNELS 3 Zrotation Xrotation Yrotation
								JOINT rhand
								{
									OFFSET 0 0 0
CHANNELS 3 Zrotation Xrotation Yrotation
									JOINT RFingers
									{
OFFSET 0 -0.743610 -0.000000
CHANNELS 3 Zrotation Xrotation Yrotation
										End Site
										{
OFFSET 0 -0.599520 -0.000000
										}
									}
								}
								JOINT RThumb
								{
OFFSET 0 0.000000 0.000000
CHANNELS 3 Zrotation Xrotation Yrotation
									End Site
									{
OFFSET 0 -0.608670 0.608670
									}
								}
							}
						}
					}
				}
			}
		}
	}
}
MOTION
Frames: 4
Frame Time: 0.008333333333333333
1.300100 11.722800 -0.885400 71.116200 -87.528900 -59.617600 0.000000 0.000000 0.000000 -0.127400 1.535900 -76.642800 23.163000 19.758400 99.283900 2.459200 -6.186000 -28.408500 0.675300 -5.254500 -14.635900 0.000000 0.000000 0.000000 -3.096000 -2.062800 -74.845900 -25.102500 -19.364000 105.072100 -4.646600 1.825300 -40.563800 -0.695700 5.331900 -14.857700 -5.469600 1.612400 18.859800 -0.218300 0.840900 -0.445100 2.642800 0.680300 -11.212200 2.515400 -0.249100 -27.894700 -2.821000 -0.704100 14.927200 -1.503400 -0.524300 9.185400 0.000000 -0.000000 0.000000 131.438400 -52.922600 21.694200 26.056400 -37.264300 8.921800 -32.493000 -32.201900 14.338700 0.000000 0.000000 0.000000 -7.125000 0.000000 0.000000 -36.498100 13.351500 -35.508500 0.000000 -0.000000 0.000000 -129.406000 -59.004600 -42.310500 -20.932600 -31.749500 -6.014400 40.493600 -8.677400 -13.740600 0.000000 0.000000 0.000000 7.125000 0.000000 -0.000000 39.292500 10.681200 44.031600
1.300117 11.722813 -0.885522 71.089818 -87.529642 -59.593827 0.000000 0.000000 0.000000 -0.125069 1.536430 -76.639927 23.162874 19.758422 99.283531 2.459109 -6.187615 -28.407775 0.674888 -5.252920 -14.631377 0.000000 0.000000 0.000000 -3.093652 -2.063160 -74.842367 -25.102378 -19.364030 105.071731 -4.647177 1.829276 -40.565488 -0.695600 5.331518 -14.856597 -5.469192 1.612821 18.862574 -0.217449 0.841460 -0.444136 2.643334 0.680552 -11.212751 2.516542 -0.249465 -27.900759 -2.823847 -0.704452 14.933203 -1.504763 -0.524747 9.188477 0.000000 0.000000 0.000000 131.437658 -52.923234 21.694721 26.058184 -37.266062 8.922881 -32.508075 -32.209661 14.325713 0.000000 0.000000 0.000000 -7.125000 0.000000 0.000000 -36.507011 13.358909 -35.515805 0.000000 0.000000 0.000000 -129.406356 -59.005720 -42.315275 -20.930239 -31.746739 -6.013163 40.503097 -8.666527 -13.743131 0.000000 0.000000 0.000000 7.125000 0.000000 0.000000 39.294492 10.673686 44.045164
1.300135 11.722826 -0.885643 71.063436 -87.530384 -59.570053 0.000000 0.000000 0.000000 -0.122738 1.536959 -76.637053 23.162748 19.758443 99.283162 2.459018 -6.189229 -28.407050 0.674475 -5.251340 -14.626854 0.000000 0.000000 0.000000 -3.091304 -2.063521 -74.838834 -25.102257 -19.364061 105.071362 -4.647755 1.833252 -40.567177 -0.695500 5.331136 -14.855495 -5.468784 1.613242 18.865347 -0.216598 0.842020 -0.443173 2.643868 0.680804 -11.213303 2.517683 -0.249829 -27.906819 -2.826695 -0.704803 14.939206 -1.506126 -0.525194 9.191555 0.000000 0.000000 0.000000 131.436916 -52.923867 21.695242 26.059968 -37.267825 8.923962 -32.523150 -32.217422 14.312726 0.000000 0.000000 0.000000 -7.125000 0.000000 0.000000 -36.515922 13.366319 -35.523110 0.000000 0.000000 0.000000 -129.406712 -59.006840 -42.320049 -20.927877 -31.743979 -6.011926 40.512594 -8.655654 -13.745661 0.000000 0.000000 0.000000 7.125000 0.000000 0.000000 39.296485 10.666173 44.058729
1.300152 11.722839 -0.885765 71.037054 -87.531127 -59.546280 0.000000 0.000000 0.000000 -0.120407 1.537489 -76.634180 23.162622 19.758465 99.282793 2.458927 -6.190844 -28.406325 0.674063 -5.249760 -14.622331 0.000000 0.000000 0.000000 -3.088955 -2.063881 -74.835300 -25.102135 -19.364091 105.070993 -4.648332 1.837228 -40.568865 -0.695401 5.330754 -14.854392 -5.468376 1.613663 18.868121 -0.215748 0.842580 -0.442209 2.644402 0.681055 -11.213854 2.518825 -0.250194 -27.912878 -2.829542 -0.705155 14.945209 -1.507489 -0.525641 9.194632 0.000000 0.000000 0.000000 131.436173 -52.924501 21.695763 26.061752 -37.269587 8.925042 -32.538224 -32.225183 14.299739 0.000000 0.000000 0.000000 -7.125000 0.000000 0.000000 -36.524834 13.373728 -35.530416 0.000000 0.000000 0.000000 -129.407068 -59.007960 -42.324824 -20.925516 -31.741218 -6.010689 40.522091 -8.644781 -13.748192 0.000000 0.000000 0.000000 7.125000 0.000000 0.000000 39.298477 10.658659 44.072293
